<svg width="31" height="30" viewBox="0 0 31 30" fill="none" xmlns="http://www.w3.org/2000/svg">
<path fill-rule="evenodd" clip-rule="evenodd" d="M15.5889 0.0833643C18.6993 0.00959696 21.7549 0.910404 24.3282 2.65969C26.9014 4.40897 28.8634 6.91918 29.9397 9.839C31.016 12.7588 31.1528 15.9421 30.3308 18.9435C29.9671 20.2718 28.5956 21.0536 27.2676 20.6898C25.9395 20.326 25.1578 18.9543 25.5216 17.6261C26.0688 15.6277 25.9778 13.5082 25.2612 11.5642C24.5445 9.62017 23.2383 7.94894 21.5251 6.78435C19.812 5.61976 17.7778 5.02008 15.7071 5.06919C13.6364 5.1183 11.6329 5.81374 9.97684 7.05823C8.32082 8.30273 7.09517 10.034 6.47148 12.0098C5.84778 13.9856 5.85726 16.1071 6.49859 18.0772C7.13993 20.0474 8.381 21.7676 10.0481 22.9973C11.7152 24.2269 13.7248 24.9044 15.7959 24.935C17.1727 24.9553 18.2723 26.0881 18.252 27.4652C18.2317 28.8422 17.099 29.942 15.7222 29.9217C12.6113 29.8757 9.59254 28.858 7.08849 27.0111C4.58444 25.1641 2.72039 22.5802 1.75714 19.6212C0.793904 16.6621 0.779664 13.4759 1.71642 10.5083C2.65317 7.54078 4.49405 4.94038 6.98149 3.07108L8.47917 5.06466L6.98149 3.07108C9.46894 1.20178 12.4785 0.157131 15.5889 0.0833643Z" fill="#121920"/>
<path d="M27.1634 24.7101C27.1634 26.7981 25.471 28.4908 23.3834 28.4908C21.2957 28.4908 19.6033 26.7981 19.6033 24.7101C19.6033 22.6221 21.2957 20.9294 23.3834 20.9294C25.471 20.9294 27.1634 22.6221 27.1634 24.7101Z" fill="#F95A59"/>
</svg>
